<svg xmlns="http://www.w3.org/2000/svg" width="400" height="400" viewBox="0 0 400 400">
  <g fill="none" stroke="#c0c8d0" stroke-width="0.7" stroke-linecap="round" stroke-linejoin="round" opacity="0.32">
    <!-- Notebook -->
    <rect x="18" y="12" width="18" height="24" rx="1.5"/>
    <line x1="23" y1="12" x2="23" y2="36"/>
    <line x1="26" y1="18" x2="33" y2="18"/>
    <line x1="26" y1="23" x2="33" y2="23"/>
    <line x1="26" y1="28" x2="30" y2="28"/>
    <!-- Clock -->
    <circle cx="88" cy="24" r="11"/>
    <line x1="88" y1="24" x2="88" y2="16"/>
    <line x1="88" y1="24" x2="94" y2="24"/>
    <!-- Pencil -->
    <line x1="152" y1="10" x2="149" y2="38"/>
    <line x1="158" y1="10" x2="155" y2="38"/>
    <line x1="152" y1="10" x2="158" y2="10"/>
    <path d="M149 38l3 6 3-6"/>
    <!-- Star -->
    <polygon points="218,14 221,22 230,22 223,27 225,35 218,30 211,35 213,27 206,22 215,22"/>
    <!-- Envelope -->
    <rect x="280" y="14" width="24" height="16" rx="1.5"/>
    <polyline points="280,14 292,25 304,14"/>
    <!-- Coffee -->
    <path d="M348 12h16v15c0 4-3 7-8 7s-8-3-8-7z"/>
    <path d="M364 16c3 0 5 2 5 5s-2 5-5 5"/>

    <!-- Ruler -->
    <rect x="14" y="75" width="36" height="9" rx="1"/>
    <line x1="21" y1="75" x2="21" y2="80"/>
    <line x1="27" y1="75" x2="27" y2="83"/>
    <line x1="33" y1="75" x2="33" y2="80"/>
    <line x1="39" y1="75" x2="39" y2="83"/>
    <!-- Magnifier -->
    <circle cx="92" cy="82" r="8"/>
    <line x1="98" y1="88" x2="105" y2="95"/>
    <!-- Paper airplane -->
    <path d="M148 72l22-5-15 8 10 6z"/>
    <line x1="155" y1="75" x2="165" y2="81"/>
    <!-- Music note -->
    <circle cx="220" cy="88" r="3.5"/>
    <line x1="223.5" y1="88" x2="223.5" y2="70"/>
    <path d="M223.5 70c4-1.5 7-0.5 7 2.5"/>
    <!-- Book -->
    <path d="M282 72c7-2 14-1 17 0.5v18c-3-1.5-10-2.5-17 0.5z"/>
    <path d="M282 72c-7-2-14-1-17 0.5v18c3-1.5 10-2.5 17 0.5z"/>
    <!-- Globe -->
    <circle cx="354" cy="80" r="10"/>
    <ellipse cx="354" cy="80" rx="5" ry="10"/>
    <line x1="344" y1="80" x2="364" y2="80"/>

    <!-- Calculator -->
    <rect x="16" y="140" width="16" height="22" rx="2"/>
    <rect x="19" y="143" width="10" height="6" rx="0.5"/>
    <circle cx="22" cy="154" r="1.2" fill="#c0c8d0"/>
    <circle cx="27" cy="154" r="1.2" fill="#c0c8d0"/>
    <circle cx="22" cy="159" r="1.2" fill="#c0c8d0"/>
    <circle cx="27" cy="159" r="1.2" fill="#c0c8d0"/>
    <!-- Squiggle -->
    <path d="M82 148c0-8 10-11 10 0s10 8 10 0"/>
    <!-- Trophy -->
    <path d="M148 138h14v10c0 5-3 8-7 8s-7-3-7-8z"/>
    <path d="M148 142c-3 0-5 2-5 4s2 4 5 4"/>
    <path d="M162 142c3 0 5 2 5 4s-2 4-5 4"/>
    <line x1="155" y1="156" x2="155" y2="162"/>
    <line x1="150" y1="162" x2="160" y2="162"/>
    <!-- Small star -->
    <polygon points="220,140 222,146 228,146 224,150 225,156 220,153 215,156 216,150 212,146 218,146"/>
    <!-- Light bulb -->
    <path d="M286 135c-5 0-9-5-9-11s4-11 9-11 9 5 9 11-4 11-9 11"/>
    <line x1="282" y1="135" x2="290" y2="135"/>
    <line x1="283" y1="138" x2="289" y2="138"/>
    <!-- Scissors -->
    <circle cx="352" cy="134" r="4"/>
    <circle cx="352" cy="148" r="4"/>
    <line x1="356" y1="134" x2="368" y2="128"/>
    <line x1="356" y1="148" x2="368" y2="134"/>

    <!-- Notebook 2 -->
    <rect x="18" y="210" width="18" height="24" rx="1.5"/>
    <line x1="23" y1="210" x2="23" y2="234"/>
    <line x1="26" y1="216" x2="33" y2="216"/>
    <line x1="26" y1="221" x2="33" y2="221"/>
    <!-- Clock 2 -->
    <circle cx="88" cy="222" r="11"/>
    <line x1="88" y1="222" x2="88" y2="214"/>
    <line x1="88" y1="222" x2="94" y2="222"/>
    <!-- Pencil 2 -->
    <line x1="152" y1="208" x2="149" y2="236"/>
    <line x1="158" y1="208" x2="155" y2="236"/>
    <line x1="152" y1="208" x2="158" y2="208"/>
    <path d="M149 236l3 6 3-6"/>
    <!-- Star 2 -->
    <polygon points="218,212 221,220 230,220 223,225 225,233 218,228 211,233 213,225 206,220 215,220"/>
    <!-- Envelope 2 -->
    <rect x="280" y="212" width="24" height="16" rx="1.5"/>
    <polyline points="280,212 292,223 304,212"/>
    <!-- Coffee 2 -->
    <path d="M348 210h16v15c0 4-3 7-8 7s-8-3-8-7z"/>
    <path d="M364 214c3 0 5 2 5 5s-2 5-5 5"/>

    <!-- Ruler 2 -->
    <rect x="14" y="275" width="36" height="9" rx="1"/>
    <line x1="21" y1="275" x2="21" y2="280"/>
    <line x1="27" y1="275" x2="27" y2="283"/>
    <line x1="33" y1="275" x2="33" y2="280"/>
    <line x1="39" y1="275" x2="39" y2="283"/>
    <!-- Magnifier 2 -->
    <circle cx="92" cy="280" r="8"/>
    <line x1="98" y1="286" x2="105" y2="293"/>
    <!-- Paper airplane 2 -->
    <path d="M148 270l22-5-15 8 10 6z"/>
    <line x1="155" y1="273" x2="165" y2="279"/>
    <!-- Music note 2 -->
    <circle cx="220" cy="286" r="3.5"/>
    <line x1="223.5" y1="286" x2="223.5" y2="268"/>
    <path d="M223.5 268c4-1.5 7-0.5 7 2.5"/>
    <!-- Book 2 -->
    <path d="M282 270c7-2 14-1 17 0.5v18c-3-1.5-10-2.5-17 0.5z"/>
    <path d="M282 270c-7-2-14-1-17 0.5v18c3-1.5 10-2.5 17 0.5z"/>
    <!-- Globe 2 -->
    <circle cx="354" cy="278" r="10"/>
    <ellipse cx="354" cy="278" rx="5" ry="10"/>
    <line x1="344" y1="278" x2="364" y2="278"/>

    <!-- Calculator 2 -->
    <rect x="16" y="338" width="16" height="22" rx="2"/>
    <rect x="19" y="341" width="10" height="6" rx="0.5"/>
    <circle cx="22" cy="352" r="1.2" fill="#c0c8d0"/>
    <circle cx="27" cy="352" r="1.2" fill="#c0c8d0"/>
    <circle cx="22" cy="357" r="1.2" fill="#c0c8d0"/>
    <circle cx="27" cy="357" r="1.2" fill="#c0c8d0"/>
    <!-- Squiggle 2 -->
    <path d="M82 346c0-8 10-11 10 0s10 8 10 0"/>
    <!-- Trophy 2 -->
    <path d="M148 336h14v10c0 5-3 8-7 8s-7-3-7-8z"/>
    <path d="M148 340c-3 0-5 2-5 4s2 4 5 4"/>
    <path d="M162 340c3 0 5 2 5 4s-2 4-5 4"/>
    <line x1="155" y1="354" x2="155" y2="360"/>
    <line x1="150" y1="360" x2="160" y2="360"/>
    <!-- Small star 2 -->
    <polygon points="220,338 222,344 228,344 224,348 225,354 220,351 215,354 216,348 212,344 218,344"/>
    <!-- Light bulb 2 -->
    <path d="M286 333c-5 0-9-5-9-11s4-11 9-11 9 5 9 11-4 11-9 11"/>
    <line x1="282" y1="333" x2="290" y2="333"/>
    <line x1="283" y1="336" x2="289" y2="336"/>
    <!-- Scissors 2 -->
    <circle cx="352" cy="332" r="4"/>
    <circle cx="352" cy="346" r="4"/>
    <line x1="356" y1="332" x2="368" y2="326"/>
    <line x1="356" y1="346" x2="368" y2="332"/>
  </g>
</svg>
